<svg width="150" height="150"  viewBox="0 0 843 843" fill="none" xmlns="http://www.w3.org/2000/svg">
<circle cx="420.5" cy="400.5" r="350.5"  fill="white"/>
<path d="M297.496 558.584H341.656V630.008H297.496V558.584ZM331.672 567.032H307.48V621.56H331.672V567.032ZM381.464 545.272H391.704V660.984H381.464V545.272ZM336.28 588.792H362.904V597.624H336.28V588.792ZM358.552 547.704H368.664V655.224H358.552V547.704ZM495.246 545.4H505.998V629.88H495.246V545.4ZM431.63 649.72H509.454V658.424H431.63V649.72ZM431.63 621.176H442.126V652.664H431.63V621.176ZM443.918 553.336C461.198 553.336 473.998 565.112 473.998 581.88C473.998 598.52 461.198 610.424 443.918 610.424C426.638 610.424 413.71 598.52 413.71 581.88C413.71 565.112 426.638 553.336 443.918 553.336ZM443.918 562.552C432.654 562.552 424.078 570.488 424.078 581.88C424.078 593.144 432.654 601.08 443.918 601.08C455.182 601.08 463.758 593.144 463.758 581.88C463.758 570.488 455.182 562.552 443.918 562.552Z" fill="#0D6EFD"/>
<path d="M428.396 151.158C427.377 150.136 426.166 149.325 424.832 148.772C423.498 148.218 422.069 147.934 420.625 147.934C419.181 147.934 417.752 148.218 416.418 148.772C415.085 149.325 413.873 150.136 412.854 151.158L281.135 282.877C280.116 283.898 279.309 285.11 278.759 286.444C278.209 287.777 277.927 289.206 277.93 290.649V444.32C277.93 447.232 279.086 450.024 281.145 452.082C283.203 454.141 285.995 455.297 288.906 455.297H387.695C390.607 455.297 393.398 454.141 395.457 452.082C397.515 450.024 398.672 447.232 398.672 444.32V356.508H442.578V444.32C442.578 447.232 443.735 450.024 445.793 452.082C447.852 454.141 450.644 455.297 453.555 455.297H552.344C555.255 455.297 558.047 454.141 560.105 452.082C562.164 450.024 563.32 447.232 563.32 444.32V290.649C563.323 289.206 563.041 287.777 562.491 286.444C561.941 285.11 561.134 283.898 560.115 282.877L530.391 253.175V180.883C530.391 177.972 529.234 175.18 527.176 173.121C525.117 171.063 522.325 169.906 519.414 169.906H497.461C494.55 169.906 491.758 171.063 489.699 173.121C487.641 175.18 486.484 177.972 486.484 180.883V209.268L428.396 151.158ZM299.883 433.344V295.193L420.625 174.451L541.367 295.193V433.344H464.531V345.531C464.531 342.62 463.375 339.828 461.316 337.77C459.258 335.711 456.466 334.555 453.555 334.555H387.695C384.784 334.555 381.992 335.711 379.934 337.77C377.875 339.828 376.719 342.62 376.719 345.531V433.344H299.883Z" fill="#0D6EFD"/>
</svg>
