<svg width="150" height="150"  viewBox="0 0 843 843" fill="none" xmlns="http://www.w3.org/2000/svg">
<circle cx="420.5" cy="400.5" r="350.5"  fill="white"/>
<path d="M428.525 302.075C445.992 302.075 462.743 295.136 475.095 282.785C487.446 270.434 494.384 253.683 494.384 236.216C494.384 218.749 487.446 201.997 475.095 189.646C462.743 177.295 445.992 170.356 428.525 170.356C411.058 170.356 394.306 177.295 381.955 189.646C369.604 201.997 362.666 218.749 362.666 236.216C362.666 253.683 369.604 270.434 381.955 282.785C394.306 295.136 411.058 302.075 428.525 302.075ZM472.431 236.216C472.431 247.86 467.805 259.028 459.571 267.262C451.337 275.496 440.17 280.122 428.525 280.122C416.88 280.122 405.713 275.496 397.478 267.262C389.244 259.028 384.619 247.86 384.619 236.216C384.619 224.571 389.244 213.403 397.478 205.169C405.713 196.935 416.88 192.31 428.525 192.31C440.17 192.31 451.337 196.935 459.571 205.169C467.805 213.403 472.431 224.571 472.431 236.216ZM560.244 411.841C560.244 433.794 538.291 433.794 538.291 433.794H318.759C318.759 433.794 296.806 433.794 296.806 411.841C296.806 389.888 318.759 324.028 428.525 324.028C538.291 324.028 560.244 389.888 560.244 411.841ZM538.291 411.753C538.269 406.353 534.91 390.107 520.026 375.223C505.712 360.91 478.776 345.981 428.525 345.981C378.252 345.981 351.338 360.91 337.024 375.223C322.14 390.107 318.803 406.353 318.759 411.753H538.291Z" fill="#0D6EFD"/>
<path d="M337.208 543.272H347.448V658.984H337.208V543.272ZM317.752 590.376H340.024V599.08H317.752V590.376ZM310.968 545.832H320.952V653.096H310.968V545.832ZM254.904 557.224H265.528V624.04H254.904V557.224ZM254.904 619.816H262.328C274.232 619.816 287.544 619.048 302.648 616.104L303.8 625.32C288.056 628.392 274.744 629.032 262.328 629.032H254.904V619.816ZM428.846 573.224H454.958V582.056H428.846V573.224ZM451.63 543.272H462.254V612.264H451.63V543.272ZM424.238 615.72C448.046 615.72 462.766 623.784 462.766 637.352C462.766 651.048 448.046 658.856 424.238 658.856C400.302 658.856 385.582 651.048 385.582 637.352C385.582 623.784 400.302 615.72 424.238 615.72ZM424.238 624.04C406.83 624.04 396.206 628.904 396.206 637.352C396.206 645.672 406.83 650.536 424.238 650.536C441.646 650.536 452.27 645.672 452.27 637.352C452.27 628.904 441.646 624.04 424.238 624.04ZM396.59 554.92H405.294V564.264C405.294 585.64 392.238 603.944 373.038 611.112L367.534 602.664C384.686 596.392 396.59 580.904 396.59 564.264V554.92ZM398.638 554.92H407.214V564.264C407.214 579.24 418.478 593.576 435.246 599.464L429.87 607.912C411.054 601.128 398.638 583.72 398.638 564.264V554.92ZM370.734 551.72H432.558V560.424H370.734V551.72ZM484.9 635.432H589.732V644.264H484.9V635.432ZM531.748 607.784H542.372V637.992H531.748V607.784ZM497.188 551.464H507.684V572.072H566.692V551.464H577.188V610.6H497.188V551.464ZM507.684 580.648V601.896H566.692V580.648H507.684Z" fill="#0D6EFD"/>
</svg>
