<svg width="150" height="150"  viewBox="0 0 843 843" fill="none" xmlns="http://www.w3.org/2000/svg">
<circle cx="420.5" cy="400.5" r="350.5" fill="white"/>
<path d="M274.464 564.216H282.528V567.544C282.528 583.544 272.544 599.544 255.776 606.072L250.912 598.008C265.248 592.376 274.464 579.704 274.464 567.544V564.216ZM276.512 564.216H284.448V567.544C284.448 579.064 293.92 590.968 308.128 595.832L303.392 603.896C286.624 597.88 276.512 583.032 276.512 567.544V564.216ZM253.472 558.328H305.056V566.776H253.472V558.328ZM274.464 545.912H284.448V563.32H274.464V545.912ZM337.696 545.4H347.808V607.224H337.696V545.4ZM319.264 571.64H341.152V580.216H319.264V571.64ZM313.12 547.576H323.104V606.072H313.12V547.576ZM271.52 612.216H347.808V639.096H282.272V656.632H271.776V631.288H337.568V620.408H271.52V612.216ZM271.776 651.256H352.288V659.576H271.776V651.256ZM452.246 545.4H462.87V630.648H452.246V545.4ZM387.478 649.72H466.07V658.424H387.478V649.72ZM387.478 623.864H398.102V654.072H387.478V623.864ZM374.038 605.432H383.382C405.27 605.432 420.502 604.664 438.422 601.592L439.574 610.296C421.142 613.496 405.782 614.136 383.382 614.136H374.038V605.432ZM373.782 553.464H426.262V587H384.406V608.12H374.038V578.808H415.894V562.168H373.782V553.464ZM516.492 561.784H525.068V580.6C525.068 605.048 510.348 629.624 491.916 638.712L485.772 630.264C502.54 622.328 516.492 600.568 516.492 580.6V561.784ZM518.54 561.784H527.116V580.6C527.116 600.184 541.068 620.152 558.092 627.448L552.076 635.896C533.388 627.192 518.54 604.664 518.54 580.6V561.784ZM489.612 557.048H554.252V566.008H489.612V557.048ZM569.868 545.272H580.492V660.984H569.868V545.272Z" fill="#0D6EFD"/>
<g clip-path="url(#clip0_852_3085)">
<path d="M325.318 153.948C325.318 151.309 326.366 148.779 328.231 146.914C330.097 145.048 332.627 144 335.265 144H534.215C536.854 144 539.384 145.048 541.249 146.914C543.115 148.779 544.163 151.309 544.163 153.948C544.163 164.651 543.924 174.837 543.486 184.506C551.348 185.808 558.869 188.671 565.606 192.925C572.343 197.18 578.16 202.741 582.714 209.28C587.268 215.818 590.466 223.203 592.12 230.997C593.775 238.792 593.852 246.839 592.346 254.664C590.841 262.489 587.785 269.933 583.356 276.557C578.928 283.182 573.219 288.853 566.564 293.235C559.909 297.618 552.444 300.624 544.61 302.076C536.775 303.527 528.729 303.396 520.945 301.688C505.228 338.792 483.583 356.936 464.583 361.592V404.824L492.933 411.906C496.793 412.861 500.434 414.592 503.617 416.98L540.184 444.415C541.854 445.667 543.088 447.414 543.71 449.407C544.333 451.4 544.313 453.538 543.652 455.518C542.992 457.499 541.726 459.222 540.032 460.443C538.338 461.663 536.303 462.32 534.215 462.32H335.265C333.177 462.32 331.142 461.663 329.449 460.443C327.755 459.222 326.488 457.499 325.828 455.518C325.168 453.538 325.148 451.4 325.77 449.407C326.393 447.414 327.626 445.667 329.297 444.415L365.864 416.98C369.047 414.592 372.688 412.861 376.547 411.906L404.898 404.824V361.592C385.898 356.936 364.252 338.792 348.535 301.668C340.748 303.385 332.696 303.524 324.854 302.077C317.012 300.63 309.54 297.626 302.878 293.243C296.217 288.86 290.501 283.186 286.069 276.557C281.637 269.928 278.578 262.478 277.073 254.647C275.568 246.817 275.647 238.763 277.306 230.964C278.966 223.164 282.171 215.776 286.733 209.236C291.295 202.696 297.122 197.136 303.868 192.885C310.615 188.634 318.145 185.778 326.014 184.486C325.546 174.314 325.313 164.131 325.318 153.948ZM327.287 204.481C316.906 206.38 307.704 212.326 301.706 221.01C295.709 229.694 293.406 240.405 295.306 250.787C297.206 261.168 303.151 270.37 311.835 276.367C320.519 282.365 331.23 284.667 341.612 282.768C334.987 261.878 329.913 236.094 327.287 204.481ZM527.889 282.768C538.27 284.667 548.981 282.365 557.665 276.367C566.349 270.37 572.295 261.168 574.194 250.787C576.094 240.405 573.792 229.694 567.794 221.01C561.796 212.326 552.595 206.38 542.213 204.481C539.567 236.114 534.494 261.878 527.889 282.768ZM345.292 163.895C345.432 174.181 345.81 183.909 346.406 193.121C348.993 233.468 355.498 263.669 363.715 285.971C380.904 332.605 404.579 342.95 414.845 342.95C417.483 342.95 420.014 343.998 421.879 345.864C423.745 347.729 424.793 350.259 424.793 352.898V404.824C424.793 409.259 423.311 413.567 420.582 417.063C417.853 420.56 414.034 423.044 409.732 424.122L381.362 431.205C380.074 431.525 378.863 432.1 377.801 432.896L365.108 442.425H504.373L491.68 432.896C490.611 432.098 489.393 431.523 488.099 431.205L459.748 424.122C455.446 423.044 451.627 420.56 448.899 417.063C446.17 413.567 444.688 409.259 444.688 404.824V352.898C444.688 350.259 445.736 347.729 447.601 345.864C449.467 343.998 451.997 342.95 454.635 342.95C464.901 342.95 488.576 332.605 505.765 285.971C513.982 263.688 520.488 233.448 523.074 193.121C523.671 183.909 524.049 174.181 524.188 163.895H345.292Z" fill="#0D6EFD"/>
</g>
<defs>
<clipPath id="clip0_852_3085">
<rect width="318.32" height="318.32" fill="white" transform="translate(276 144)"/>
</clipPath>
</defs>
</svg>
