<svg width="150" height="150"  viewBox="0 0 843 843" fill="none" xmlns="http://www.w3.org/2000/svg">
<circle cx="420.5" cy="400.5" r="350.5" fill="white"/>
<g clip-path="url(#clip0_852_3096)">
<path d="M421.864 449.184C422.811 450.133 423.936 450.887 425.174 451.4C426.412 451.914 427.74 452.179 429.08 452.179C430.421 452.179 431.749 451.914 432.987 451.4C434.225 450.887 435.35 450.133 436.297 449.184L474.07 411.39H551.391C562.204 411.39 572.574 407.095 580.219 399.449C587.865 391.803 592.161 381.433 592.161 370.62V187.155C592.161 176.342 587.865 165.972 580.219 158.326C572.574 150.68 562.204 146.385 551.391 146.385H306.77C295.957 146.385 285.587 150.68 277.941 158.326C270.295 165.972 266 176.342 266 187.155V370.62C266 381.433 270.295 391.803 277.941 399.449C285.587 407.095 295.957 411.39 306.77 411.39H384.091L421.864 449.184ZM286.385 309.465V248.31H571.776V309.465H286.385ZM571.776 329.85V370.62C571.776 376.027 569.628 381.212 565.805 385.035C561.982 388.858 556.797 391.005 551.391 391.005H474.07C468.664 391.006 463.48 393.155 459.658 396.978L429.08 427.556L398.503 396.978C394.681 393.155 389.497 391.006 384.091 391.005H306.77C301.364 391.005 296.179 388.858 292.356 385.035C288.533 381.212 286.385 376.027 286.385 370.62V329.85H571.776ZM571.776 227.925H286.385V187.155C286.385 181.748 288.533 176.563 292.356 172.74C296.179 168.918 301.364 166.77 306.77 166.77H551.391C556.797 166.77 561.982 168.918 565.805 172.74C569.628 176.563 571.776 181.748 571.776 187.155V227.925ZM306.77 360.428C306.77 363.131 307.844 365.723 309.755 367.635C311.667 369.546 314.259 370.62 316.963 370.62H480.043C482.746 370.62 485.339 369.546 487.25 367.635C489.162 365.723 490.235 363.131 490.235 360.428C490.235 357.725 489.162 355.132 487.25 353.221C485.339 351.309 482.746 350.235 480.043 350.235H316.963C314.259 350.235 311.667 351.309 309.755 353.221C307.844 355.132 306.77 357.725 306.77 360.428ZM306.77 278.888C306.77 281.591 307.844 284.183 309.755 286.095C311.667 288.006 314.259 289.08 316.963 289.08H541.198C543.901 289.08 546.494 288.006 548.405 286.095C550.317 284.183 551.391 281.591 551.391 278.888C551.391 276.184 550.317 273.592 548.405 271.68C546.494 269.769 543.901 268.695 541.198 268.695H316.963C314.259 268.695 311.667 269.769 309.755 271.68C307.844 273.592 306.77 276.184 306.77 278.888ZM306.77 197.347C306.77 200.051 307.844 202.643 309.755 204.555C311.667 206.466 314.259 207.54 316.963 207.54H439.273C441.976 207.54 444.569 206.466 446.48 204.555C448.392 202.643 449.465 200.051 449.465 197.347C449.465 194.644 448.392 192.052 446.48 190.14C444.569 188.229 441.976 187.155 439.273 187.155H316.963C314.259 187.155 311.667 188.229 309.755 190.14C307.844 192.052 306.77 194.644 306.77 197.347Z" fill="#0D6EFD"/>
</g>
<path d="M241.4 555.304H251.64C251.64 588.712 240.12 619.432 199.416 639.912L193.4 631.72C229.112 613.8 241.4 588.072 241.4 556.456V555.304ZM199.672 555.304H247.8V563.88H199.672V555.304ZM240.76 583.976V592.04L195.576 596.264L193.784 587.048L240.76 583.976ZM277.88 543.272H288.504V658.984H277.88V543.272ZM251.384 589.608H283V598.44H251.384V589.608ZM337.646 613.032H348.27V659.88H337.646V613.032ZM378.734 613.032H389.358V659.88H378.734V613.032ZM311.022 610.216H415.982V618.92H311.022V610.216ZM324.334 549.544H402.414V594.6H324.334V549.544ZM392.046 557.992H334.83V586.152H392.046V557.992ZM512.996 543.272H523.62V658.984H512.996V543.272ZM436.196 554.536H446.692V626.216H436.196V554.536ZM436.196 619.944H445.668C463.204 619.944 481.508 618.664 501.092 614.568L502.372 623.656C482.276 627.752 463.972 629.16 445.668 629.16H436.196V619.944ZM553.946 622.376H563.162C584.794 622.376 599.898 621.736 617.69 618.792L618.714 627.368C600.538 630.568 585.178 631.208 563.162 631.208H553.946V622.376ZM553.946 553.768H610.01V562.6H564.442V625.448H553.946V553.768ZM561.882 586.152H605.786V594.728H561.882V586.152ZM630.874 543.272H641.498V658.984H630.874V543.272Z" fill="#0D6EFD"/>
<defs>
<clipPath id="clip0_852_3096">
<rect width="326.161" height="326.161" fill="white" transform="translate(266 126)"/>
</clipPath>
</defs>
</svg>
