<svg width="140" height="140" viewBox="0 0 140 140" fill="none" xmlns="http://www.w3.org/2000/svg">
<g clip-path="url(#clip0_729_2969)">
<path d="M48.125 83.2212C48.79 91.5687 55.3875 98.07 67.2175 98.84V105H72.4675V98.7963C84.7175 97.9388 91.875 91.3938 91.875 81.8913C91.875 73.255 86.3975 68.8012 76.6063 66.4912L72.4675 65.5112V48.7375C77.7175 49.3325 81.06 52.2025 81.865 56.175H91.07C90.405 48.1338 83.51 41.8425 72.4675 41.16V35H67.2175V41.2912C56.7613 42.315 49.63 48.6063 49.63 57.505C49.63 65.38 54.9325 70.385 63.7437 72.4413L67.2175 73.2987V91.0963C61.8363 90.2825 58.275 87.3337 57.47 83.2212H48.125ZM67.1738 64.2687C62.0113 63.07 59.2113 60.6287 59.2113 56.9537C59.2113 52.8412 62.23 49.7613 67.2175 48.86V64.26L67.1738 64.2687ZM73.2288 74.7075C79.5025 76.16 82.3987 78.5137 82.3987 82.67C82.3987 87.4125 78.7937 90.6675 72.4675 91.2625V74.5325L73.2288 74.7075Z" fill="#0A58CA"/>
<path d="M70 131.25C53.7555 131.25 38.1763 124.797 26.6897 113.31C15.2031 101.824 8.75 86.2445 8.75 70C8.75 53.7555 15.2031 38.1763 26.6897 26.6897C38.1763 15.2031 53.7555 8.75 70 8.75C86.2445 8.75 101.824 15.2031 113.31 26.6897C124.797 38.1763 131.25 53.7555 131.25 70C131.25 86.2445 124.797 101.824 113.31 113.31C101.824 124.797 86.2445 131.25 70 131.25ZM70 140C88.5652 140 106.37 132.625 119.497 119.497C132.625 106.37 140 88.5652 140 70C140 51.4348 132.625 33.6301 119.497 20.5025C106.37 7.37498 88.5652 0 70 0C51.4348 0 33.6301 7.37498 20.5025 20.5025C7.37498 33.6301 0 51.4348 0 70C0 88.5652 7.37498 106.37 20.5025 119.497C33.6301 132.625 51.4348 140 70 140Z" fill="#0A58CA"/>
<path d="M70 118.125C57.2365 118.125 44.9957 113.055 35.9705 104.03C26.9453 95.0043 21.875 82.7635 21.875 70C21.875 57.2365 26.9453 44.9957 35.9705 35.9705C44.9957 26.9453 57.2365 21.875 70 21.875C82.7635 21.875 95.0043 26.9453 104.03 35.9705C113.055 44.9957 118.125 57.2365 118.125 70C118.125 82.7635 113.055 95.0043 104.03 104.03C95.0043 113.055 82.7635 118.125 70 118.125ZM70 122.5C76.8944 122.5 83.7213 121.142 90.0909 118.504C96.4605 115.865 102.248 111.998 107.123 107.123C111.998 102.248 115.865 96.4605 118.504 90.0909C121.142 83.7213 122.5 76.8944 122.5 70C122.5 63.1056 121.142 56.2787 118.504 49.9091C115.865 43.5395 111.998 37.752 107.123 32.8769C102.248 28.0018 96.4605 24.1347 90.0909 21.4963C83.7213 18.858 76.8944 17.5 70 17.5C56.0761 17.5 42.7226 23.0312 32.8769 32.8769C23.0312 42.7226 17.5 56.0761 17.5 70C17.5 83.9239 23.0312 97.2774 32.8769 107.123C42.7226 116.969 56.0761 122.5 70 122.5Z" fill="#0A58CA"/>
</g>
<defs>
<clipPath id="clip0_729_2969">
<rect width="140" height="140" fill="white"/>
</clipPath>
</defs>
</svg>
